# xmcd
#
# Track frame offsets:
#	150
#	13762
#	30299
#	43311
#	59473
#	74885
#	92472
#	105334
#	120146
#	138258
#	151795
#	164732
#	178920
#	190507
#	207419
#	221931
#	232093
#	247430
#
# Disc length: 3509 seconds
#
# Revision: 1
# Processed by: cddbd v1.5.2PL0 Copyright (c) Steve Scherf et al.
# Submitted via: audiograbber 1.82.02
#
DISCID=080db312
DTITLE=Various Artist - Country Radio - October 2009
DYEAR=2009
DGENRE=Country
TTITLE0=Brooks and Dunn (Ft. Billy Gibbons) - Honky Tonk Stomp
TTITLE1=Mica Roberts - Days You Live For
TTITLE2=Steve Azar - Moo La Moo
TTITLE3=Reba McEntire - Consider Me Gone (Album Ver)
TTITLE4=Ash Bowers - Stuck
TTITLE5=Lady Antebellum - Need You Now
TTITLE6=Jypsi - Mr. Officer
TTITLE7=Kenny Chesney and Dave Matthews - I'm Alive
TTITLE8=Radney Foster and The Confessions - A Little Revival (Album Ver)
TTITLE9=Steel Magnolia - Keep On Lovin' You
TTITLE10=Krista Marie - Tomboy
TTITLE11=Josh Thompson - Beer On The Table
TTITLE12=John Fogerty (Ft. Bruce Springsteen) - When Will I Be Loved (Album Ver
TTITLE12=)
TTITLE13=Miranda Lambert - White Liar
TTITLE14=Hannah McNeil - What Am I Getting Up For
TTITLE15=Allen Thompson - Forgive Me (Album Ver)
TTITLE16=Elliot Brood - Without Again (Album Ver)
TTITLE17=Amelia Curran - Scattered and Small (Album Ver)
EXTD=
EXTT0=
EXTT1=
EXTT2=
EXTT3=
EXTT4=
EXTT5=
EXTT6=
EXTT7=
EXTT8=
EXTT9=
EXTT10=
EXTT11=
EXTT12=
EXTT13=
EXTT14=
EXTT15=
EXTT16=
EXTT17=
PLAYORDER=
